P3
16 8 255
63 96 175
82 114 191
87 110 186
93 113 186
108 125 197
111 125 196
107 121 196
121 137 212
108 127 204
106 130 204
96 120 194
121 146 213
97 121 181
96 117 170
106 124 172
123 140 184
95 124 194
106 133 202
100 121 188
82 100 166
103 117 180
108 119 183
108 119 185
105 118 188
103 120 190
105 125 194
97 120 187
126 150 212
147 168 223
88 109 156
120 137 180
139 154 193
64 85 138
109 129 180
151 167 218
137 147 196
156 162 212
146 152 202
156 162 214
147 156 211
153 166 221
144 161 215
125 145 198
113 133 183
122 141 183
67 83 117
60 74 103
70 82 108
45 62 78
72 88 103
111 120 135
71 77 91
71 74 89
41 43 58
61 66 85
60 68 89
51 63 87
78 94 117
97 115 137
59 78 95
14 32 44
50 68 72
47 61 61
75 87 83
96 108 68
83 94 54
103 111 70
85 90 50
109 111 72
93 95 58
121 127 93
121 130 99
135 150 121
141 160 132
142 165 136
151 175 143
136 158 120
183 202 157
159 175 126
81 95 42
128 132 81
106 110 59
123 123 73
116 114 65
125 123 74
113 110 65
141 142 100
146 152 114
166 177 143
174 191 157
145 165 130
146 168 130
117 138 95
78 96 48
145 160 105
82 96 37
81 74 56
69 62 44
76 67 50
68 56 40
57 45 31
67 57 47
110 102 99
125 123 124
103 108 112
121 132 138
126 141 146
172 187 190
195 210 207
139 152 143
158 169 153
133 142 123
98 87 85
99 88 86
117 101 101
127 111 112
121 105 108
138 122 132
145 134 148
125 120 140
103 105 128
95 102 128
90 102 128
94 109 130
112 123 141
117 127 137
66 73 79
130 135 138
